<svg preserveAspectRatio="xMidYMid meet" viewBox="0 0 749.000000 749.000000" height="749.000000pt" width="749.000000pt" xmlns="http://www.w3.org/2000/svg" version="1.0">
<metadata>
Created by potrace 1.14, written by Peter Selinger 2001-2017
</metadata>
<g stroke="none" fill="#000000" transform="translate(0.000000,749.000000) scale(0.100000,-0.100000)">
<path d="M2312 7468 c-11 -20 -21 -65 -38 -158 -2 -14 -7 -36 -10 -50 -3 -14
-8 -34 -10 -45 -1 -11 -5 -31 -8 -45 -3 -14 -8 -38 -11 -55 -3 -16 -10 -50
-15 -75 -5 -25 -12 -56 -14 -70 -2 -14 -7 -36 -10 -50 -3 -14 -8 -36 -10 -50
-3 -14 -10 -47 -15 -75 -11 -52 -28 -132 -36 -175 -3 -14 -12 -59 -20 -100
-21 -103 -24 -120 -31 -155 -3 -16 -9 -48 -14 -70 -5 -22 -12 -56 -15 -75 -3
-19 -10 -53 -15 -75 -5 -22 -12 -56 -15 -75 -3 -19 -10 -52 -16 -72 l-10 -38
-188 0 c-230 0 -274 -10 -330 -77 -52 -63 -58 -91 -56 -238 1 -113 4 -135 23
-168 12 -21 22 -41 22 -45 0 -5 -26 -8 -57 -8 -76 0 -114 -8 -167 -34 -63 -30
-123 -92 -154 -158 l-27 -57 0 -2455 c0 -1350 4 -2468 8 -2485 23 -84 132
-192 224 -222 29 -10 281 -12 1068 -10 l1030 2 47 23 c95 46 177 151 192 247
4 22 6 141 6 265 -1 124 -1 232 -1 240 0 12 0 195 0 235 -1 36 0 204 1 220 0
11 0 36 -1 55 -1 19 -1 40 -1 45 0 6 0 165 1 355 0 190 0 354 0 365 0 22 0
224 0 240 -1 22 0 831 1 850 1 36 -1 108 -3 118 -1 5 4 12 10 14 9 3 12 -5 9
-25 -4 -38 2 -47 35 -55 19 -5 29 -2 32 7 3 8 -2 16 -14 19 -25 7 -25 43 1 57
23 13 27 32 4 23 -10 -4 -17 2 -21 16 -6 23 -38 26 -38 4 0 -6 -3 -15 -7 -19
-6 -5 -12 462 -9 671 0 18 0 207 0 245 0 8 0 213 0 455 1 242 -1 451 -4 465
-11 59 -28 110 -41 121 -8 6 -14 15 -14 20 0 11 -38 50 -81 82 -52 39 -114 58
-199 62 -41 2 -76 4 -78 4 -1 1 10 20 25 43 27 41 28 45 28 187 -1 141 -2 147
-27 188 -40 62 -86 93 -160 109 -5 1 -93 2 -197 3 -187 1 -190 1 -197 24 -4
12 -8 29 -9 37 -1 8 -10 53 -20 100 -10 47 -19 94 -20 105 -1 11 -5 27 -8 35
-6 17 -16 70 -23 120 -2 19 -9 49 -14 65 -5 17 -11 46 -13 65 -3 19 -7 42 -10
50 -4 8 -8 29 -11 45 -2 17 -10 55 -16 85 -12 56 -17 83 -24 123 -2 12 -11 56
-20 97 -8 41 -17 86 -20 100 -2 14 -20 104 -40 200 -19 96 -37 184 -38 195 -2
11 -7 26 -11 33 -5 6 -5 12 -1 12 4 0 -1 9 -11 20 -24 27 -59 26 -73 -2z"></path>
<path d="M5114 7483 c-17 -13 -28 -45 -38 -108 -6 -43 -67 -345 -87 -435 -6
-25 -12 -54 -13 -65 -2 -11 -6 -33 -10 -50 -7 -32 -13 -64 -21 -105 -2 -14
-18 -92 -35 -175 -17 -82 -33 -161 -36 -175 -2 -14 -7 -38 -11 -55 -3 -16 -8
-37 -9 -45 -1 -8 -5 -28 -9 -45 -3 -16 -16 -82 -29 -145 l-23 -115 -209 -5
c-231 -6 -255 -11 -310 -73 -50 -56 -62 -102 -60 -239 1 -107 4 -129 24 -166
12 -24 20 -47 17 -52 -3 -4 -26 -7 -52 -5 -135 7 -264 -71 -322 -195 l-26 -55
-3 -2430 c-2 -1804 0 -2444 8 -2484 14 -63 42 -113 90 -162 44 -44 72 -61 134
-82 46 -16 140 -17 1075 -15 1003 3 1027 3 1066 23 53 27 61 32 114 86 29 29
54 69 69 105 l22 59 -2 2450 -3 2450 -27 55 c-36 72 -81 121 -145 154 -60 32
-93 39 -180 40 -60 1 -75 7 -52 21 9 6 23 34 37 75 3 8 5 74 6 145 0 148 -13
188 -79 243 -56 46 -94 52 -307 52 -149 0 -195 3 -195 13 0 6 -8 48 -17 92 -9
44 -18 91 -21 105 -7 38 -35 175 -55 275 -17 81 -32 157 -45 225 -3 14 -7 36
-10 50 -10 49 -15 70 -19 89 -2 10 -7 35 -10 55 -3 19 -11 57 -17 83 -6 27
-13 58 -15 71 -5 27 -10 53 -44 222 -11 52 -22 109 -25 125 -3 17 -8 37 -10
45 -2 8 -4 22 -4 30 -1 8 -5 20 -9 27 -9 15 -54 25 -68 16z"></path>
</g>
</svg>
